<svg width="123" height="123" viewBox="0 0 123 123" fill="none" xmlns="http://www.w3.org/2000/svg">
<path d="M61.5 61.5C61.5 44.7273 75.4773 30.75 92.25 30.75C109.023 30.75 123 44.7273 123 61.5H61.5ZM61.5 61.5C61.5 78.2727 47.5227 92.25 30.75 92.25C13.9773 92.25 0 78.2727 0 61.5H61.5ZM61.5 61.5C44.7273 61.5 30.75 47.5227 30.75 30.75C30.75 13.9773 44.7273 0 61.5 0V61.5ZM61.5 61.5C78.2727 61.5 92.25 75.4773 92.25 92.25C92.25 109.023 78.2727 123 61.5 123V61.5Z" fill="#042463" fill-opacity="0.47"/>
</svg>
