<svg width="660" height="439" viewBox="0 0 660 439" fill="none" xmlns="http://www.w3.org/2000/svg">
<path d="M307 91C307 68.25 325.958 49.2917 348.708 49.2917C371.458 49.2917 390.417 68.25 390.417 91H307ZM307 91C307 113.75 288.042 132.708 265.292 132.708C242.542 132.708 223.583 113.75 223.583 91H307ZM307 91C284.25 91 265.292 72.0417 265.292 49.2917C265.292 26.5417 284.25 7.58334 307 7.58334V91ZM307 91C329.75 91 348.708 109.958 348.708 132.708C348.708 155.458 329.75 174.417 307 174.417V91Z" fill="#042463" fill-opacity="0.47"/>
<path d="M10.08 217.8H19.68V285H10.08V217.8ZM97.5908 217.8V285H89.7188L49.3988 234.888V285H39.7988V217.8H47.6708L87.9908 267.912V217.8H97.5908ZM137.289 285.768C132.233 285.768 127.337 285 122.601 283.464C117.929 281.864 114.249 279.816 111.561 277.32L115.113 269.832C117.673 272.136 120.937 274.024 124.905 275.496C128.937 276.904 133.065 277.608 137.289 277.608C142.857 277.608 147.017 276.68 149.769 274.824C152.521 272.904 153.897 270.376 153.897 267.24C153.897 264.936 153.129 263.08 151.593 261.672C150.121 260.2 148.265 259.08 146.025 258.312C143.849 257.544 140.745 256.68 136.713 255.72C131.657 254.504 127.561 253.288 124.425 252.072C121.353 250.856 118.697 249 116.457 246.504C114.281 243.944 113.193 240.52 113.193 236.232C113.193 232.648 114.121 229.416 115.977 226.536C117.897 223.656 120.777 221.352 124.617 219.624C128.457 217.896 133.225 217.032 138.921 217.032C142.889 217.032 146.793 217.544 150.633 218.568C154.473 219.592 157.769 221.064 160.521 222.984L157.353 230.664C154.537 228.872 151.529 227.528 148.329 226.632C145.129 225.672 141.993 225.192 138.921 225.192C133.481 225.192 129.385 226.184 126.633 228.168C123.945 230.152 122.601 232.712 122.601 235.848C122.601 238.152 123.369 240.04 124.905 241.512C126.441 242.92 128.329 244.04 130.569 244.872C132.873 245.64 135.977 246.472 139.881 247.368C144.937 248.584 149.001 249.8 152.073 251.016C155.145 252.232 157.769 254.088 159.945 256.584C162.185 259.08 163.305 262.44 163.305 266.664C163.305 270.184 162.345 273.416 160.425 276.36C158.505 279.24 155.593 281.544 151.689 283.272C147.785 284.936 142.985 285.768 137.289 285.768ZM189.737 226.152H166.697V217.8H222.281V226.152H199.241V285H189.737V226.152ZM272.177 268.2H236.465L229.073 285H219.185L249.617 217.8H259.121L289.649 285H279.569L272.177 268.2ZM268.817 260.52L254.321 227.592L239.825 260.52H268.817ZM309.643 226.152H286.603V217.8H342.187V226.152H319.147V285H309.643V226.152ZM352.643 217.8H362.243V285H352.643V217.8ZM412.409 285.768C405.689 285.768 399.609 284.296 394.169 281.352C388.793 278.344 384.569 274.248 381.497 269.064C378.425 263.816 376.889 257.928 376.889 251.4C376.889 244.872 378.425 239.016 381.497 233.832C384.569 228.584 388.825 224.488 394.265 221.544C399.705 218.536 405.785 217.032 412.505 217.032C417.753 217.032 422.553 217.928 426.905 219.72C431.257 221.448 434.969 224.04 438.041 227.496L431.801 233.544C426.745 228.232 420.441 225.576 412.889 225.576C407.897 225.576 403.385 226.696 399.353 228.936C395.321 231.176 392.153 234.28 389.849 238.248C387.609 242.152 386.489 246.536 386.489 251.4C386.489 256.264 387.609 260.68 389.849 264.648C392.153 268.552 395.321 271.624 399.353 273.864C403.385 276.104 407.897 277.224 412.889 277.224C420.377 277.224 426.681 274.536 431.801 269.16L438.041 275.208C434.969 278.664 431.225 281.288 426.809 283.08C422.457 284.872 417.657 285.768 412.409 285.768ZM473.624 255.144L461.336 267.624V285H451.736V217.8H461.336V255.336L497.816 217.8H508.76L480.056 248.04L510.584 285H499.352L473.624 255.144ZM569.504 276.648V285H520.736V217.8H568.16V226.152H530.336V246.792H564.032V254.952H530.336V276.648H569.504ZM598.393 226.152H575.353V217.8H630.937V226.152H607.897V285H598.393V226.152Z" fill="white"/>
<path d="M58.836 327.7H45.444L42.672 334H38.964L50.376 308.8H53.94L65.388 334H61.608L58.836 327.7ZM57.576 324.82L52.14 312.472L46.704 324.82H57.576ZM69.1472 308.8H79.7672C82.4312 308.8 84.7952 309.328 86.8592 310.384C88.9232 311.44 90.5192 312.928 91.6472 314.848C92.7992 316.744 93.3752 318.928 93.3752 321.4C93.3752 323.872 92.7992 326.068 91.6472 327.988C90.5192 329.884 88.9232 331.36 86.8592 332.416C84.7952 333.472 82.4312 334 79.7672 334H69.1472V308.8ZM79.5512 330.868C81.5912 330.868 83.3792 330.472 84.9152 329.68C86.4752 328.888 87.6752 327.784 88.5152 326.368C89.3552 324.928 89.7752 323.272 89.7752 321.4C89.7752 319.528 89.3552 317.884 88.5152 316.468C87.6752 315.028 86.4752 313.912 84.9152 313.12C83.3792 312.328 81.5912 311.932 79.5512 311.932H72.7472V330.868H79.5512ZM98.8894 308.8H109.509C112.173 308.8 114.537 309.328 116.601 310.384C118.665 311.44 120.261 312.928 121.389 314.848C122.541 316.744 123.117 318.928 123.117 321.4C123.117 323.872 122.541 326.068 121.389 327.988C120.261 329.884 118.665 331.36 116.601 332.416C114.537 333.472 112.173 334 109.509 334H98.8894V308.8ZM109.293 330.868C111.333 330.868 113.121 330.472 114.657 329.68C116.217 328.888 117.417 327.784 118.257 326.368C119.097 324.928 119.517 323.272 119.517 321.4C119.517 319.528 119.097 317.884 118.257 316.468C117.417 315.028 116.217 313.912 114.657 313.12C113.121 312.328 111.333 311.932 109.293 311.932H102.489V330.868H109.293ZM128.288 329.284C128.96 329.284 129.512 329.524 129.944 330.004C130.4 330.46 130.628 331.036 130.628 331.732C130.628 332.092 130.58 332.44 130.484 332.776C130.412 333.112 130.256 333.628 130.016 334.324L128.324 339.328H126.056L127.388 333.964C126.932 333.796 126.56 333.52 126.272 333.136C126.008 332.728 125.876 332.26 125.876 331.732C125.876 331.012 126.104 330.424 126.56 329.968C127.016 329.512 127.592 329.284 128.288 329.284ZM157.021 334.288C154.501 334.288 152.221 333.736 150.181 332.632C148.165 331.504 146.581 329.968 145.429 328.024C144.277 326.056 143.701 323.848 143.701 321.4C143.701 318.952 144.277 316.756 145.429 314.812C146.581 312.844 148.177 311.308 150.217 310.204C152.257 309.076 154.537 308.512 157.057 308.512C159.025 308.512 160.825 308.848 162.457 309.52C164.089 310.168 165.481 311.14 166.633 312.436L164.293 314.704C162.397 312.712 160.033 311.716 157.201 311.716C155.329 311.716 153.637 312.136 152.125 312.976C150.613 313.816 149.425 314.98 148.561 316.468C147.721 317.932 147.301 319.576 147.301 321.4C147.301 323.224 147.721 324.88 148.561 326.368C149.425 327.832 150.613 328.984 152.125 329.824C153.637 330.664 155.329 331.084 157.201 331.084C160.009 331.084 162.373 330.076 164.293 328.06L166.633 330.328C165.481 331.624 164.077 332.608 162.421 333.28C160.789 333.952 158.989 334.288 157.021 334.288ZM193.44 308.8V334H189.84V322.768H175.368V334H171.768V308.8H175.368V319.636H189.84V308.8H193.44ZM217.039 327.7H203.647L200.875 334H197.167L208.579 308.8H212.143L223.591 334H219.811L217.039 327.7ZM215.779 324.82L210.343 312.472L204.907 324.82H215.779ZM249.022 308.8V334H246.07L230.95 315.208V334H227.35V308.8H230.302L245.422 327.592V308.8H249.022ZM274.025 321.256H277.481V331.084C276.233 332.116 274.781 332.908 273.125 333.46C271.469 334.012 269.741 334.288 267.941 334.288C265.397 334.288 263.105 333.736 261.065 332.632C259.025 331.504 257.417 329.968 256.241 328.024C255.089 326.056 254.513 323.848 254.513 321.4C254.513 318.952 255.089 316.744 256.241 314.776C257.417 312.808 259.025 311.272 261.065 310.168C263.129 309.064 265.445 308.512 268.013 308.512C270.029 308.512 271.853 308.848 273.485 309.52C275.141 310.168 276.545 311.128 277.697 312.4L275.465 314.632C273.449 312.688 271.013 311.716 268.157 311.716C266.237 311.716 264.509 312.136 262.973 312.976C261.461 313.792 260.273 314.944 259.409 316.432C258.545 317.896 258.113 319.552 258.113 321.4C258.113 323.224 258.545 324.88 259.409 326.368C260.273 327.832 261.461 328.984 262.973 329.824C264.509 330.664 266.225 331.084 268.121 331.084C270.377 331.084 272.345 330.544 274.025 329.464V321.256ZM302.662 330.868V334H284.374V308.8H302.158V311.932H287.974V319.672H300.61V322.732H287.974V330.868H302.662ZM334.215 327.7H320.823L318.051 334H314.343L325.755 308.8H329.319L340.767 334H336.987L334.215 327.7ZM332.955 324.82L327.519 312.472L322.083 324.82H332.955ZM366.198 308.8V334H363.246L348.126 315.208V334H344.526V308.8H347.478L362.598 327.592V308.8H366.198ZM373.741 308.8H384.361C387.025 308.8 389.389 309.328 391.453 310.384C393.517 311.44 395.113 312.928 396.241 314.848C397.393 316.744 397.969 318.928 397.969 321.4C397.969 323.872 397.393 326.068 396.241 327.988C395.113 329.884 393.517 331.36 391.453 332.416C389.389 333.472 387.025 334 384.361 334H373.741V308.8ZM384.145 330.868C386.185 330.868 387.973 330.472 389.509 329.68C391.069 328.888 392.269 327.784 393.109 326.368C393.949 324.928 394.369 323.272 394.369 321.4C394.369 319.528 393.949 317.884 393.109 316.468C392.269 315.028 391.069 313.912 389.509 313.12C387.973 312.328 386.185 311.932 384.145 311.932H377.341V330.868H384.145ZM424.419 334.288C421.899 334.288 419.619 333.736 417.579 332.632C415.563 331.504 413.979 329.968 412.827 328.024C411.675 326.056 411.099 323.848 411.099 321.4C411.099 318.952 411.675 316.756 412.827 314.812C413.979 312.844 415.575 311.308 417.615 310.204C419.655 309.076 421.935 308.512 424.455 308.512C426.423 308.512 428.223 308.848 429.855 309.52C431.487 310.168 432.879 311.14 434.031 312.436L431.691 314.704C429.795 312.712 427.431 311.716 424.599 311.716C422.727 311.716 421.035 312.136 419.523 312.976C418.011 313.816 416.823 314.98 415.959 316.468C415.119 317.932 414.699 319.576 414.699 321.4C414.699 323.224 415.119 324.88 415.959 326.368C416.823 327.832 418.011 328.984 419.523 329.824C421.035 330.664 422.727 331.084 424.599 331.084C427.407 331.084 429.771 330.076 431.691 328.06L434.031 330.328C432.879 331.624 431.475 332.608 429.819 333.28C428.187 333.952 426.387 334.288 424.419 334.288ZM450.015 334.288C447.471 334.288 445.179 333.736 443.139 332.632C441.099 331.504 439.491 329.956 438.315 327.988C437.163 326.02 436.587 323.824 436.587 321.4C436.587 318.976 437.163 316.78 438.315 314.812C439.491 312.844 441.099 311.308 443.139 310.204C445.179 309.076 447.471 308.512 450.015 308.512C452.535 308.512 454.815 309.076 456.855 310.204C458.895 311.308 460.491 312.844 461.643 314.812C462.795 316.756 463.371 318.952 463.371 321.4C463.371 323.848 462.795 326.056 461.643 328.024C460.491 329.968 458.895 331.504 456.855 332.632C454.815 333.736 452.535 334.288 450.015 334.288ZM450.015 331.084C451.863 331.084 453.519 330.664 454.983 329.824C456.471 328.984 457.635 327.832 458.475 326.368C459.339 324.88 459.771 323.224 459.771 321.4C459.771 319.576 459.339 317.932 458.475 316.468C457.635 314.98 456.471 313.816 454.983 312.976C453.519 312.136 451.863 311.716 450.015 311.716C448.167 311.716 446.487 312.136 444.975 312.976C443.487 313.816 442.311 314.98 441.447 316.468C440.607 317.932 440.187 319.576 440.187 321.4C440.187 323.224 440.607 324.88 441.447 326.368C442.311 327.832 443.487 328.984 444.975 329.824C446.487 330.664 448.167 331.084 450.015 331.084ZM485.722 334L480.286 326.26C479.614 326.308 479.086 326.332 478.702 326.332H472.474V334H468.874V308.8H478.702C481.966 308.8 484.534 309.58 486.406 311.14C488.278 312.7 489.214 314.848 489.214 317.584C489.214 319.528 488.734 321.184 487.774 322.552C486.814 323.92 485.446 324.916 483.67 325.54L489.646 334H485.722ZM478.594 323.272C480.874 323.272 482.614 322.78 483.814 321.796C485.014 320.812 485.614 319.408 485.614 317.584C485.614 315.76 485.014 314.368 483.814 313.408C482.614 312.424 480.874 311.932 478.594 311.932H472.474V323.272H478.594ZM511.878 334L506.442 326.26C505.77 326.308 505.242 326.332 504.858 326.332H498.63V334H495.03V308.8H504.858C508.122 308.8 510.69 309.58 512.562 311.14C514.434 312.7 515.37 314.848 515.37 317.584C515.37 319.528 514.89 321.184 513.93 322.552C512.97 323.92 511.602 324.916 509.826 325.54L515.802 334H511.878ZM504.75 323.272C507.03 323.272 508.77 322.78 509.97 321.796C511.17 320.812 511.77 319.408 511.77 317.584C511.77 315.76 511.17 314.368 509.97 313.408C508.77 312.424 507.03 311.932 504.75 311.932H498.63V323.272H504.75ZM539.474 330.868V334H521.186V308.8H538.97V311.932H524.786V319.672H537.422V322.732H524.786V330.868H539.474ZM556.466 334.288C553.946 334.288 551.666 333.736 549.626 332.632C547.61 331.504 546.026 329.968 544.874 328.024C543.722 326.056 543.146 323.848 543.146 321.4C543.146 318.952 543.722 316.756 544.874 314.812C546.026 312.844 547.622 311.308 549.662 310.204C551.702 309.076 553.982 308.512 556.502 308.512C558.47 308.512 560.27 308.848 561.902 309.52C563.534 310.168 564.926 311.14 566.078 312.436L563.738 314.704C561.842 312.712 559.478 311.716 556.646 311.716C554.774 311.716 553.082 312.136 551.57 312.976C550.058 313.816 548.87 314.98 548.006 316.468C547.166 317.932 546.746 319.576 546.746 321.4C546.746 323.224 547.166 324.88 548.006 326.368C548.87 327.832 550.058 328.984 551.57 329.824C553.082 330.664 554.774 331.084 556.646 331.084C559.454 331.084 561.818 330.076 563.738 328.06L566.078 330.328C564.926 331.624 563.522 332.608 561.866 333.28C560.234 333.952 558.434 334.288 556.466 334.288ZM575.936 311.932H567.296V308.8H588.14V311.932H579.5V334H575.936V311.932Z" fill="#1753AC"/>
</svg>
